<svg width="26" height="27" viewBox="0 0 26 27" fill="none" xmlns="http://www.w3.org/2000/svg">
<path d="M13 2.97479C7.01996 2.97479 2.16663 7.79917 2.16663 13.7435C2.16663 19.6878 7.01996 24.5122 13 24.5122C18.98 24.5122 23.8333 19.6878 23.8333 13.7435C23.8333 7.79917 18.98 2.97479 13 2.97479ZM7.96246 20.7432C9.38163 19.7309 11.115 19.1279 13 19.1279C14.885 19.1279 16.6183 19.7309 18.0375 20.7432C16.6183 21.7554 14.885 22.3585 13 22.3585C11.115 22.3585 9.38163 21.7554 7.96246 20.7432ZM19.6516 19.2571C17.8208 17.8356 15.5133 16.9741 13 16.9741C10.4866 16.9741 8.17913 17.8356 6.34829 19.2571C5.09163 17.7602 4.33329 15.8434 4.33329 13.7435C4.33329 8.98373 8.21163 5.12853 13 5.12853C17.7883 5.12853 21.6666 8.98373 21.6666 13.7435C21.6666 15.8434 20.9083 17.7602 19.6516 19.2571Z" fill="#4C4C4C"/>
<path d="M13 7.28227C10.9091 7.28227 9.20829 8.97296 9.20829 11.0513C9.20829 13.1297 10.9091 14.8204 13 14.8204C15.0908 14.8204 16.7916 13.1297 16.7916 11.0513C16.7916 8.97296 15.0908 7.28227 13 7.28227ZM13 12.6666C12.1008 12.6666 11.375 11.9451 11.375 11.0513C11.375 10.1575 12.1008 9.43602 13 9.43602C13.8991 9.43602 14.625 10.1575 14.625 11.0513C14.625 11.9451 13.8991 12.6666 13 12.6666Z" fill="#4C4C4C"/>
</svg>
