<svg width="16" height="20" viewBox="0 0 16 20" fill="none" xmlns="http://www.w3.org/2000/svg">
<g clip-path="url(#clip0_2_401)">
<path d="M8.76517 0.253906C4.76569 0.253906 0.812988 2.92578 0.812988 7.25C0.812988 10 2.35665 11.5625 3.2922 11.5625C3.67811 11.5625 3.90031 10.4844 3.90031 10.1797C3.90031 9.81641 2.97645 9.04297 2.97645 7.53125C2.97645 4.39062 5.3621 2.16406 8.44942 2.16406C11.104 2.16406 13.0687 3.67578 13.0687 6.45312C13.0687 8.52734 12.2384 12.418 9.5487 12.418C8.57806 12.418 7.74776 11.7148 7.74776 10.707C7.74776 9.23047 8.77687 7.80078 8.77687 6.27734C8.77687 3.69141 5.11652 4.16016 5.11652 7.28516C5.11652 7.94141 5.19838 8.66797 5.49074 9.26562C4.9528 11.5859 3.85353 15.043 3.85353 17.4336C3.85353 18.1719 3.95878 18.8984 4.02894 19.6367C4.16148 19.7852 4.09521 19.7695 4.29792 19.6953C6.26257 17 6.19241 16.4727 7.08118 12.9453C7.56065 13.8594 8.80025 14.3516 9.78258 14.3516C13.9224 14.3516 15.7818 10.3086 15.7818 6.66406C15.7818 2.78516 12.4372 0.253906 8.76517 0.253906Z" fill="white"/>
</g>
<defs>
<clipPath id="clip0_2_401">
<rect width="14.9688" height="20" fill="white" transform="translate(0.812988)"/>
</clipPath>
</defs>
</svg>
