<svg width="26" height="26" viewBox="0 0 26 26" fill="none" xmlns="http://www.w3.org/2000/svg">
<path d="M17.0679 15.4429H16.2121L15.9087 15.1504C16.9704 13.9154 17.6096 12.3121 17.6096 10.5679C17.6096 6.67875 14.4571 3.52625 10.5679 3.52625C6.67875 3.52625 3.52625 6.67875 3.52625 10.5679C3.52625 14.4571 6.67875 17.6096 10.5679 17.6096C12.3121 17.6096 13.9154 16.9704 15.1504 15.9087L15.4429 16.2121V17.0679L20.8596 22.4737L22.4737 20.8596L17.0679 15.4429ZM10.5679 15.4429C7.87041 15.4429 5.69291 13.2654 5.69291 10.5679C5.69291 7.87042 7.87041 5.69292 10.5679 5.69292C13.2654 5.69292 15.4429 7.87042 15.4429 10.5679C15.4429 13.2654 13.2654 15.4429 10.5679 15.4429Z" fill="#666666"/>
</svg>
