<svg width="54" height="50" viewBox="0 0 54 50" fill="none" xmlns="http://www.w3.org/2000/svg">
<path d="M13.4756 4.1665L6.75732 12.4998V41.6665C6.75732 42.7716 7.2292 43.8314 8.06914 44.6128C8.90909 45.3942 10.0483 45.8332 11.2362 45.8332H42.5879C43.7758 45.8332 44.915 45.3942 45.755 44.6128C46.5949 43.8314 47.0668 42.7716 47.0668 41.6665V12.4998L40.3485 4.1665H13.4756Z" stroke="#CF9163" stroke-width="2" stroke-linecap="round" stroke-linejoin="round"/>
<path d="M6.75732 12.5H47.0668" stroke="#CF9163" stroke-width="2" stroke-linecap="round" stroke-linejoin="round"/>
<path d="M35.8697 20.8335C35.8697 23.0436 34.9259 25.1632 33.246 26.7261C31.5661 28.2889 29.2877 29.1668 26.912 29.1668C24.5363 29.1668 22.2579 28.2889 20.578 26.7261C18.8981 25.1632 17.9543 23.0436 17.9543 20.8335" stroke="#CF9163" stroke-width="2" stroke-linecap="round" stroke-linejoin="round"/>
</svg>
