<svg width="20" height="19" viewBox="0 0 20 19" fill="none" xmlns="http://www.w3.org/2000/svg">
<g clip-path="url(#clip0_2_397)">
<path d="M17.9627 5.62949C17.9738 5.79648 17.9738 5.96719 17.9738 6.13418C17.9738 11.2812 14.0632 17.215 6.91603 17.215C4.71261 17.215 2.66843 16.5768 0.950134 15.4672C1.2612 15.5043 1.56487 15.5154 1.88705 15.5154C3.70533 15.5154 5.37549 14.8994 6.71235 13.8529C5.00516 13.8158 3.57202 12.6951 3.07949 11.1514C3.3202 11.1885 3.56091 11.2107 3.81273 11.2107C4.16083 11.2107 4.50893 11.1625 4.83481 11.0771C3.05356 10.7172 1.7204 9.14746 1.7204 7.25488V7.20664C2.23886 7.49609 2.83878 7.67793 3.47573 7.70019C2.42772 7.00254 1.74262 5.80762 1.74262 4.45684C1.74262 3.7332 1.93519 3.06895 2.27218 2.49004C4.18675 4.85391 7.06045 6.39766 10.286 6.56465C10.2267 6.27519 10.1897 5.97461 10.1897 5.67402C10.1897 3.5291 11.9228 1.78125 14.0744 1.78125C15.1927 1.78125 16.2037 2.25254 16.9147 3.00957C17.7924 2.84258 18.6367 2.51602 19.3811 2.0707C19.0922 2.97617 18.4775 3.7332 17.6739 4.21562C18.4553 4.13027 19.2144 3.91504 19.9106 3.61445C19.3811 4.38633 18.7182 5.07285 17.9627 5.62949Z" fill="white"/>
</g>
<defs>
<clipPath id="clip0_2_397">
<rect width="18.9605" height="19" fill="white" transform="translate(0.950134)"/>
</clipPath>
</defs>
</svg>
