<svg xmlns="http://www.w3.org/2000/svg" width="24" height="22" viewBox="0 0 24 22" fill="none">
<path d="M16.5847 3.50623C14.8868 3.50623 13.2572 4.24873 12.1936 5.42206C11.1299 4.24873 9.50033 3.50623 7.80242 3.50623C4.79694 3.50623 2.43549 5.72456 2.43549 8.54789C2.43549 12.0129 5.75323 14.8362 10.7786 19.1262L12.1936 20.3271L13.6085 19.1171C18.6339 14.8362 21.9516 12.0129 21.9516 8.54789C21.9516 5.72456 19.5902 3.50623 16.5847 3.50623ZM12.2911 17.7604L12.1936 17.8521L12.096 17.7604C7.45113 13.8096 4.3871 11.1971 4.3871 8.54789C4.3871 6.71456 5.85081 5.33956 7.80242 5.33956C9.30516 5.33956 10.7689 6.24706 11.2861 7.50289H13.1108C13.6182 6.24706 15.0819 5.33956 16.5847 5.33956C18.5363 5.33956 20 6.71456 20 8.54789C20 11.1971 16.936 13.8096 12.2911 17.7604Z" fill="white"/>
</svg>