<svg width="18" height="20" viewBox="0 0 18 20" fill="none" xmlns="http://www.w3.org/2000/svg">
<g clip-path="url(#clip0_2_393)">
<path d="M8.5672 5.50781C6.15883 5.50781 4.21622 7.51172 4.21622 9.99609C4.21622 12.4805 6.15883 14.4844 8.5672 14.4844C10.9756 14.4844 12.9182 12.4805 12.9182 9.99609C12.9182 7.51172 10.9756 5.50781 8.5672 5.50781ZM8.5672 12.9141C7.01085 12.9141 5.7385 11.6055 5.7385 9.99609C5.7385 8.38672 7.00706 7.07812 8.5672 7.07812C10.1273 7.07812 11.3959 8.38672 11.3959 9.99609C11.3959 11.6055 10.1236 12.9141 8.5672 12.9141ZM14.111 5.32422C14.111 5.90625 13.6566 6.37109 13.0962 6.37109C12.5319 6.37109 12.0813 5.90234 12.0813 5.32422C12.0813 4.74609 12.5357 4.27734 13.0962 4.27734C13.6566 4.27734 14.111 4.74609 14.111 5.32422ZM16.9927 6.38672C16.9284 4.98437 16.6178 3.74219 15.6219 2.71875C14.6298 1.69531 13.4256 1.375 12.0662 1.30469C10.6651 1.22266 6.46555 1.22266 5.06446 1.30469C3.7088 1.37109 2.50461 1.69141 1.50869 2.71484C0.512777 3.73828 0.20605 4.98047 0.137888 6.38281C0.0583666 7.82812 0.0583666 12.1602 0.137888 13.6055C0.202263 15.0078 0.512777 16.25 1.50869 17.2734C2.50461 18.2969 3.70501 18.6172 5.06446 18.6875C6.46555 18.7695 10.6651 18.7695 12.0662 18.6875C13.4256 18.6211 14.6298 18.3008 15.6219 17.2734C16.6141 16.25 16.9246 15.0078 16.9927 13.6055C17.0723 12.1602 17.0723 7.83203 16.9927 6.38672ZM15.1827 15.1562C14.8873 15.9219 14.3155 16.5117 13.5695 16.8203C12.4524 17.2773 9.80168 17.1719 8.5672 17.1719C7.33272 17.1719 4.67821 17.2734 3.5649 16.8203C2.8227 16.5156 2.2509 15.9258 1.95174 15.1562C1.50869 14.0039 1.61094 11.2695 1.61094 9.99609C1.61094 8.72266 1.51248 5.98437 1.95174 4.83594C2.24711 4.07031 2.81891 3.48047 3.5649 3.17187C4.68199 2.71484 7.33272 2.82031 8.5672 2.82031C9.80168 2.82031 12.4562 2.71875 13.5695 3.17187C14.3117 3.47656 14.8835 4.06641 15.1827 4.83594C15.6257 5.98828 15.5235 8.72266 15.5235 9.99609C15.5235 11.2695 15.6257 14.0078 15.1827 15.1562Z" fill="white"/>
</g>
<defs>
<clipPath id="clip0_2_393">
<rect width="16.9647" height="20" fill="white" transform="translate(0.0811157)"/>
</clipPath>
</defs>
</svg>
