<svg width="56" height="51" viewBox="0 0 56 51" fill="none" xmlns="http://www.w3.org/2000/svg">
<path d="M2.52002 8.47021V21.1758H16.2243" stroke="#CF9163" stroke-width="2" stroke-linecap="round" stroke-linejoin="round"/>
<path d="M52.7691 42.3521V29.6465H39.0648" stroke="#CF9163" stroke-width="2" stroke-linecap="round" stroke-linejoin="round"/>
<path d="M47.0362 19.0585C45.8778 16.0235 43.909 13.3101 41.3136 11.1713C38.7182 9.03258 35.5806 7.53826 32.1938 6.82779C28.8069 6.11732 25.2812 6.21386 21.9455 7.1084C18.6097 8.00295 15.5728 9.66634 13.118 11.9434L2.52002 21.1761M52.7692 29.6465L42.1712 38.8792C39.7164 41.1562 36.6795 42.8196 33.3438 43.7142C30.008 44.6087 26.4823 44.7053 23.0954 43.9948C19.7086 43.2843 16.5711 41.79 13.9756 39.6513C11.3802 37.5125 9.41139 34.7991 8.25299 31.7641" stroke="#CF9163" stroke-width="2" stroke-linecap="round" stroke-linejoin="round"/>
</svg>
