<svg width="26" height="27" viewBox="0 0 26 27" fill="none" xmlns="http://www.w3.org/2000/svg">
<path d="M19.4999 7.28227H17.3333C17.3333 4.90239 15.3941 2.97479 12.9999 2.97479C10.6058 2.97479 8.66659 4.90239 8.66659 7.28227H6.49992C5.30825 7.28227 4.33325 8.25146 4.33325 9.43602V22.3585C4.33325 23.543 5.30825 24.5122 6.49992 24.5122H19.4999C20.6916 24.5122 21.6666 23.543 21.6666 22.3585V9.43602C21.6666 8.25146 20.6916 7.28227 19.4999 7.28227ZM12.9999 5.12853C14.1916 5.12853 15.1666 6.09772 15.1666 7.28227H10.8333C10.8333 6.09772 11.8083 5.12853 12.9999 5.12853ZM19.4999 22.3585H6.49992V9.43602H8.66659V11.5898C8.66659 12.182 9.15409 12.6666 9.74992 12.6666C10.3458 12.6666 10.8333 12.182 10.8333 11.5898V9.43602H15.1666V11.5898C15.1666 12.182 15.6541 12.6666 16.2499 12.6666C16.8458 12.6666 17.3333 12.182 17.3333 11.5898V9.43602H19.4999V22.3585Z" fill="#4C4C4C"/>
</svg>
