<svg width="56" height="51" viewBox="0 0 56 51" fill="none" xmlns="http://www.w3.org/2000/svg">
<path d="M37.1316 6.34082H3.20886V33.8167H37.1316V6.34082Z" stroke="#CF9163" stroke-width="2" stroke-linecap="round" stroke-linejoin="round"/>
<path d="M37.1316 16.9082H46.1776L52.9622 23.2488V33.8164H37.1316V16.9082Z" stroke="#CF9163" stroke-width="2" stroke-linecap="round" stroke-linejoin="round"/>
<path d="M13.3857 44.384C16.5082 44.384 19.0395 42.0184 19.0395 39.1002C19.0395 36.1821 16.5082 33.8164 13.3857 33.8164C10.2632 33.8164 7.7319 36.1821 7.7319 39.1002C7.7319 42.0184 10.2632 44.384 13.3857 44.384Z" stroke="#CF9163" stroke-width="2" stroke-linecap="round" stroke-linejoin="round"/>
<path d="M42.7853 44.384C45.9078 44.384 48.4391 42.0184 48.4391 39.1002C48.4391 36.1821 45.9078 33.8164 42.7853 33.8164C39.6628 33.8164 37.1316 36.1821 37.1316 39.1002C37.1316 42.0184 39.6628 44.384 42.7853 44.384Z" stroke="#CF9163" stroke-width="2" stroke-linecap="round" stroke-linejoin="round"/>
</svg>
